# xmcd
# 
# Track frame offsets:
#     150
#     15209
#     29598
#     45014
#     60754
#     75331
#     92308
#     107748
#     121173
#     135519
# 
# Disc length: 1996
# 
# Revision: 2
# Processed by: cddbd v1.5.2PL0 Copyright (c) Steve Scherf et al.
# Submitted via: BonkEnc v1.0.15
# 
DISCID=5a07ca0a
DTITLE=OLOIVER DRAGOJEVIĆ - Svirajte noćas za moju dušu
DYEAR=1988
DGENRE=Zabavni
TTITLE0=Svirajte noćas za moju dušu
TTITLE1=Plavo more djeva molila
TTITLE2=Kletva
TTITLE3=Angela, Angela
TTITLE4=Djeni
TTITLE5=Tu non llores mi querida
TTITLE6=Jedan od mnogih
TTITLE7=Vodi me tamo kraj plavog mora
TTITLE8=Ljubav je bol
TTITLE9=Što to bješe ljubav
EXTD=
EXTT0=
EXTT1=
EXTT2=
EXTT3=
EXTT4=
EXTT5=
EXTT6=
EXTT7=
EXTT8=
EXTT9=
PLAYORDER=
